<svg width="22" height="23" viewBox="0 0 22 23" fill="none" xmlns="http://www.w3.org/2000/svg">
<path fill-rule="evenodd" clip-rule="evenodd" d="M18.2551 11.4278C17.7671 11.4278 17.3711 11.83 17.3711 12.3256V17.3226C17.3711 17.6197 17.1334 17.8621 16.8408 17.8621H5.52651C5.23393 17.8621 4.99616 17.6197 4.99616 17.3226V5.83206C4.99616 5.5349 5.23393 5.2934 5.52651 5.2934H13.9831C14.471 5.2934 14.867 4.8912 14.867 4.39563C14.867 3.89917 14.471 3.49787 13.9831 3.49787H5.52651C4.25985 3.49787 3.2283 4.54466 3.2283 5.83206V17.3226C3.2283 18.61 4.25985 19.6577 5.52651 19.6577H16.8408C18.1075 19.6577 19.139 18.61 19.139 17.3226V12.3256C19.139 11.83 18.743 11.4278 18.2551 11.4278Z" fill="#FDFBF7"/>
<path fill-rule="evenodd" clip-rule="evenodd" d="M10.0555 10.6612C9.71784 10.303 9.1592 10.2886 8.80563 10.6315C8.45294 10.9736 8.4388 11.5419 8.77646 11.901L10.7414 13.9928C10.9076 14.1696 11.1374 14.2702 11.3779 14.2711H11.3814C11.6209 14.2711 11.8499 14.1723 12.0161 13.9973L18.0064 7.71291C18.3459 7.3565 18.337 6.78821 17.9861 6.44347C17.6343 6.09783 17.0748 6.1086 16.7362 6.46412L11.3858 12.0778L10.0555 10.6612Z" fill="#5978E8"/>
</svg>
